<svg xmlns="http://www.w3.org/2000/svg" width="77" height="70" viewBox="0 0 76 70"><path style="stroke:none;fill-rule:nonzero;fill:#1266a9;fill-opacity:1" d="M9.785 45.125a5.3 5.3 0 0 0 .219.418c.035.082.086.164.133.238.074.149.152.29.226.434l.446.75c.082.14.16.277.254.414.152.266.335.531.5.797.07.11.14.222.222.332.309.488.59.89.895 1.285.215.293.425.582.66.867.074.11.16.219.238.328l.625.762c.074.09.152.191.235.281.277.336.57.66.863.992 0 .004.008.012.011.02.368.46.758.871 1.188 1.234l.012.012c.226.234.449.465.691.691l.285.278c.313.297.625.59.957.875.004 0 .008.004.012.008l.16.14c.29.254.582.504.875.739l.356.3c.238.192.488.375.734.567l.383.297c.262.199.543.39.808.586.098.07.2.14.301.207l.082.066.793.523.336.227c.418.27.828.52 1.242.77.118.058.235.124.344.195.305.176.621.355.93.515.168.098.344.18.52.27.21.121.433.234.656.355.062.02.113.04.164.07l.011-.011c.094.043.18.086.274.133.336.172.691.332 1.054.492.07.027.145.059.215.098.407.18.813.347 1.235.515.097.028.199.075.297.114.378.144.773.293 1.164.433l.14.051c.43.148.856.289 1.297.422.102.031.207.066.313.094.449.136.882.3 1.34.386 28.988 5.305 37.414-17.5 37.414-17.5-7.079 9.254-19.641 11.692-31.536 8.977-.437-.102-.879-.246-1.324-.375a31.547 31.547 0 0 1-1.87-.598l.265.086-.172-.07c-.387-.13-.754-.278-1.13-.422-.093-.04-.187-.074-.28-.11l-.032-.007a38.01 38.01 0 0 1-1.218-.516c-.086-.031-.16-.07-.25-.105a38.313 38.313 0 0 1-1.41-.653l.39.172a3.067 3.067 0 0 1-.3-.148 18.697 18.697 0 0 1-.79-.403c-.199-.093-.39-.191-.586-.3l.059.03c-.32-.171-.637-.358-.961-.53-.094-.07-.203-.125-.316-.188-.477-.281-.95-.57-1.414-.87l.175.105a6.767 6.767 0 0 1-.347-.235l.015.012a15.332 15.332 0 0 1-.89-.594c-.098-.062-.184-.129-.285-.2a23.61 23.61 0 0 1-.895-.648l.066.047c-.117-.093-.246-.187-.37-.28-.25-.196-.5-.384-.75-.59l-.333-.266a28.168 28.168 0 0 1-1.043-.88l-.004-.003-.98-.899-.281-.265c-.23-.239-.47-.461-.707-.696l-.274-.285c-.293-.293-.578-.59-.855-.898l-.016-.02-.047-.039c-.3-.332-.594-.668-.883-1.004-.078-.09-.148-.183-.226-.277l-.64-.785c-.29-.363-.571-.735-.848-1.113l-.114-.157c-6.597-9.047-8.984-21.527-3.703-31.765l-4.664 5.949c-5.996 8.652-5.254 19.906-.668 29.094.106.226.219.437.332.652Zm0 0"/><path style="stroke:none;fill-rule:nonzero;fill:#000;fill-opacity:1" d="m29.984 32.656-.03-.047-.028-.03Zm0 0"/><path style="stroke:none;fill-rule:nonzero;fill:#1266a9;fill-opacity:1" d="m33.137 36.39.258.258c.32.313.648.618.984.922l.043.04c.34.3.719.617 1.113.925l.059.043c.097.067.18.145.27.211.398.305.792.598 1.21.89l.04.028c.175.129.363.246.558.371.082.05.172.117.254.172.3.191.594.371.898.555.047.023.09.047.133.066.254.156.531.309.797.445.094.055.184.098.277.153.192.093.38.195.559.293l.09.039c.379.187.77.363 1.152.539.094.035.176.066.258.105.312.137.633.27.945.387.14.05.274.105.406.148.29.11.59.211.875.31l.395.128c.414.129.832.297 1.27.363C68.366 47.5 73.546 30.195 73.546 30.195c-4.664 6.742-13.692 9.953-23.313 7.446a24.89 24.89 0 0 1-1.425-.414l.16.046c-.137-.039-.254-.082-.387-.12-.293-.102-.594-.204-.879-.31l-.406-.152c-.317-.129-.637-.246-.945-.382-.098-.043-.184-.075-.258-.118a40.411 40.411 0 0 1-1.18-.543l-.582-.304-.336-.172c-.258-.137-.496-.277-.746-.422a2.765 2.765 0 0 1-.184-.102h.008c-.297-.187-.61-.367-.894-.558-.098-.055-.184-.121-.278-.176l-.586-.387c-.406-.285-.804-.59-1.207-.886-.09-.082-.18-.149-.265-.223-4.23-3.34-7.567-7.906-9.149-13.074-1.668-5.375-1.3-11.399 1.578-16.29L28.734 8.09c-4.351 6.27-4.105 14.644-.718 21.273a25.638 25.638 0 0 0 1.937 3.246c.645.926 1.356 2.016 2.211 2.762.305.348.633.684.973 1.02Zm0 0"/><path style="stroke:none;fill-rule:nonzero;fill:#000;fill-opacity:1" d="m12.691 49.809-.011-.016-.02-.023Zm11.735-2.118.027.02.008.008Zm0 0"/><path style="stroke:none;fill-rule:nonzero;fill:#1266a9;fill-opacity:1" d="M44.383 2.64c-2.563 3.778-2.809 8.473-1.043 12.637 1.879 4.426 5.71 7.899 10.183 9.547.184.07.36.13.551.2l.246.074c.262.082.524.18.793.242 12.364 2.394 15.707-6.375 16.61-7.664-2.946 4.242-7.88 5.262-13.938 3.785a14.533 14.533 0 0 1-1.55-.484l.093.03a17.437 17.437 0 0 1-1.851-.769l.105.047a17.895 17.895 0 0 1-3.07-1.89C46.098 14.265 42.75 6.402 46.285 0Zm0 0"/></svg>