<svg xmlns="http://www.w3.org/2000/svg" width="41" height="40"><path style="stroke:none;fill-rule:nonzero;fill:#161614;fill-opacity:1" d="M20.422 0C9.145 0 0 9.168 0 20.48c0 9.047 5.852 16.723 13.965 19.434 1.02.188 1.394-.445 1.394-.984 0-.489-.02-2.106-.027-3.817-5.68 1.242-6.879-2.414-6.879-2.414-.93-2.367-2.27-2.996-2.27-2.996-1.851-1.273.141-1.246.141-1.246 2.051.145 3.133 2.11 3.133 2.11 1.82 3.132 4.777 2.226 5.941 1.703.184-1.325.711-2.227 1.297-2.739-4.535-.52-9.304-2.273-9.304-10.12 0-2.235.796-4.063 2.105-5.497-.215-.516-.914-2.601.195-5.422 0 0 1.715-.55 5.618 2.102a19.548 19.548 0 0 1 5.113-.692 19.57 19.57 0 0 1 5.113.692c3.899-2.653 5.613-2.102 5.613-2.102 1.11 2.82.41 4.906.2 5.422 1.308 1.434 2.101 3.262 2.101 5.496 0 7.867-4.777 9.598-9.324 10.106.73.636 1.383 1.882 1.383 3.793 0 2.738-.024 4.945-.024 5.62 0 .544.368 1.184 1.403.981 8.11-2.71 13.953-10.387 13.953-19.43C40.84 9.168 31.7 0 20.422 0"/><path style="stroke:none;fill-rule:nonzero;fill:#161614;fill-opacity:1" d="M7.648 29.176c-.046.101-.203.129-.351.058-.149-.066-.23-.203-.184-.304.047-.106.207-.137.352-.067.148.067.234.207.183.313m1.004.898c-.097.09-.289.047-.418-.097-.132-.141-.156-.332-.058-.426.101-.09.285-.047.418.097.136.145.16.332.058.426m.692 1.149c-.13.086-.332.004-.457-.176-.125-.184-.125-.402 0-.488.129-.09.328-.008.457.171.125.184.125.403-.004.493m1.168 1.332c-.113.125-.352.09-.528-.078-.175-.164-.226-.399-.113-.524s.352-.09.528.078c.18.164.23.403.113.524m1.504.449c-.047.16-.278.234-.508.164-.23-.07-.383-.258-.336-.418.047-.16.277-.238.512-.164.23.07.383.254.332.418m1.715.191c.007.168-.188.309-.434.313-.242.004-.441-.133-.441-.297 0-.172.191-.313.433-.316.242-.004.442.132.442.3m1.683-.066c.031.168-.137.336-.379.379-.238.047-.457-.059-.488-.219-.027-.172.145-.34.379-.383.242-.043.457.055.488.223"/></svg>